<?xml version="1.0" ?>
<!-- Uploaded to: SVG Repo, www.svgrepo.com, Generator: SVG Repo Mixer Tools -->
<svg fill="#000000" width="800px" height="800px" viewBox="0 0 50 50" xmlns="http://www.w3.org/2000/svg">
<g id="Solid">
<path d="M37,12.5v9.45a10,10,0,1,1,2,0V16.5l3.6-2.7a1,1,0,1,0-1.2-1.6L39,14V8a1,1,0,0,0-2,0v2L34.6,8.2a1,1,0,1,0-1.2,1.6ZM39,46h3.6991a2.55416,2.55416,0,0,0-1.14637-1.10547,1.00012,1.00012,0,1,1,.89454-1.78906A4.59146,4.59146,0,0,1,44,44.34528a4.59146,4.59146,0,0,1,1.55273-1.23981,1.00012,1.00012,0,0,1,.89454,1.78906A2.55087,2.55087,0,0,0,45.3006,46H47a1,1,0,0,1,0,2H3a1,1,0,0,1,0-2H4V41H3a1,1,0,0,1,0-2H4V26a1,1,0,0,1,2,0v1H28V26a1,1,0,0,1,2,0V39h1a1,1,0,0,1,0,2H30v5h7V21.95c.33.03.66.05,1,.05s.67-.02,1-.05v9.81207l2.40833-2.15673A3.45446,3.45446,0,0,1,41,28a3.5,3.5,0,1,1,3.5,3.5,3.45611,3.45611,0,0,1-1.69739-.45837L39,34.4469ZM24,41H10v5H24Zm4-8H6v2H28ZM3.92969,15.65625a3.01473,3.01473,0,0,1,3.37781.72858l-.75184.3222a.9997.9997,0,0,0-.52491,1.313,1.01668,1.01668,0,0,0,1.313.52492L11.02,16.96924a.99987.99987,0,1,0-.78809-1.83789l-.74975.32135a2.99646,2.99646,0,0,1,1.80053-2.94782.99986.99986,0,1,0-.78808-1.83789,5.051,5.051,0,0,0-2.88556,3.40454,5.32841,5.32841,0,0,0-4.46747-.25317.99987.99987,0,1,0,.78809,1.83789ZM14.1416,4.50488A2.996,2.996,0,0,1,15.94214,7.4527l-.74976-.32135a.99986.99986,0,1,0-.78808,1.83789c1.22529.52519,2.45432,1.0427,3.67625,1.57567a1.01661,1.01661,0,0,0,1.313-.52489.99968.99968,0,0,0-.5249-1.313l-.75183-.3222a2.965,2.965,0,0,1,3.37781-.72858.99987.99987,0,0,0,.78809-1.83789,5.07083,5.07083,0,0,0-4.46631.26269A4.99474,4.99474,0,0,0,14.92969,2.667a.99987.99987,0,1,0-.78809,1.83789Z"/>
</g>
</svg>