<?xml version="1.0" encoding="iso-8859-1"?>
<!-- Uploaded to: SVG Repo, www.svgrepo.com, Generator: SVG Repo Mixer Tools -->
<svg fill="#000000" height="800px" width="800px" version="1.1" id="Layer_1" xmlns="http://www.w3.org/2000/svg" xmlns:xlink="http://www.w3.org/1999/xlink" 
	 viewBox="0 0 512 512" xml:space="preserve">
<g>
	<g>
		<path d="M228.766,98.045c0-12.895,3.324-18.99,7.172-26.046c4.298-7.879,9.168-16.808,9.168-33.87
			c0-17.028-4.852-25.954-9.144-33.82C234.584,1.744,231.878,0,228.763,0c-4.512,0-8.17,3.658-8.17,8.17
			c0,1.424,0.366,2.762,1.007,3.927c3.845,7.051,7.167,13.144,7.167,26.031c0,12.895-3.324,18.99-7.172,26.046
			c-4.298,7.878-9.168,16.807-9.168,33.869c0,17.062,4.871,25.99,9.167,33.868c1.483,2.719,4.287,4.259,7.18,4.259
			c1.321,0,2.662-0.321,3.904-0.999c3.962-2.16,5.422-7.123,3.26-11.084C232.089,117.032,228.766,110.94,228.766,98.045z"/>
	</g>
</g>
<g>
	<g>
		<path d="M283.234,98.045c0-12.895,3.324-18.99,7.172-26.046c4.297-7.879,9.168-16.808,9.168-33.87
			c0-17.028-4.852-25.954-9.144-33.82C289.052,1.744,286.346,0,283.231,0c-4.512,0-8.17,3.658-8.17,8.17
			c0,1.424,0.366,2.762,1.007,3.927c3.845,7.051,7.167,13.144,7.167,26.031c0,12.895-3.324,18.99-7.172,26.046
			c-4.298,7.878-9.168,16.807-9.168,33.869c0,17.062,4.871,25.99,9.167,33.868c1.483,2.719,4.287,4.259,7.18,4.259
			c1.321,0,2.662-0.321,3.904-0.999c3.962-2.16,5.422-7.123,3.26-11.084C286.557,117.032,283.234,110.94,283.234,98.045z"/>
	</g>
</g>
<g>
	<g>
		<path d="M487.489,408.511h-24.511v-49.021c0-114.129-92.85-206.979-206.979-206.979S49.021,245.36,49.021,359.489V384
			c0,4.512,3.658,8.17,8.17,8.17c4.512,0,8.17-3.658,8.17-8.17v-24.511c0-33.801,8.854-65.568,24.346-93.124
			c0.184-0.002,0.364-0.016,0.549-0.016c10.428,0,15.566,3.642,21.604,8.384c-15.108,25.638-23.078,54.774-23.078,84.757v49.021
			H24.511C10.995,408.511,0,419.506,0,433.021c0,13.516,10.995,24.511,24.511,24.511h10.451l5.959,17.878
			C47.761,495.928,70.06,512,91.688,512h328.624c21.628,0,43.927-16.072,50.766-36.591l5.959-17.878h10.451
			c13.516,0,24.511-10.995,24.511-24.511C512,419.506,501.005,408.511,487.489,408.511z M446.638,359.489v49.021h-23.421v-49.021
			c0-13.741,8.667-25.489,21.083-29.816C445.834,339.391,446.638,349.347,446.638,359.489z M441.031,313.556
			c-19.991,5.923-34.155,24.302-34.155,45.933v49.021h-23.421v-49.021c0-31.536,20.887-59.227,50.539-68.258
			C436.781,298.472,439.136,305.923,441.031,313.556z M422.292,266.365c1.807,3.215,3.528,6.484,5.152,9.811
			c-35.491,11.659-60.329,45.2-60.329,83.313v49.021h-23.421v-16.34c0-4.512-3.658-8.17-8.17-8.17c-4.512,0-8.17,3.658-8.17,8.17
			v16.34h-23.421v-49.021c0-31.217,9.33-60.857,27.043-86.197c0.927,0.703,1.86,1.435,2.824,2.195
			c4.502,3.551,9.704,7.646,17.098,10.192c-15.263,21.463-23.543,47.192-23.543,73.81c0,4.512,3.658,8.17,8.17,8.17
			c4.512,0,8.17-3.658,8.17-8.17c0-26.231,9.241-51.458,26.053-71.452c14.568-0.849,22.755-7.295,29.417-12.549
			c6.472-5.106,11.585-9.139,22.562-9.139C421.917,266.349,422.103,266.363,422.292,266.365z M287.591,359.489v49.021H264.17
			v-49.021c0-12.822,1.258-25.425,3.73-37.744c0.027-0.118,0.052-0.236,0.074-0.357c2.804-13.833,7.159-27.302,13.041-40.306
			c2.866-1.821,5.355-3.778,7.658-5.594c6.473-5.106,11.585-9.139,22.562-9.139c1.628,0,3.113,0.098,4.508,0.266
			C297.293,294.108,287.591,325.981,287.591,359.489z M99.466,250.816c34.466-49.501,91.776-81.965,156.534-81.965
			c64.756,0,122.065,32.463,156.535,81.961c-10.969,1.99-17.793,7.35-23.492,11.846c-6.472,5.106-11.585,9.139-22.562,9.139
			c-10.977,0-16.09-4.033-22.563-9.139c-7.145-5.635-16.036-12.649-32.682-12.649s-25.537,7.013-32.681,12.649
			c-6.473,5.106-11.585,9.139-22.562,9.139c-10.977,0-16.09-4.033-22.563-9.139c-7.145-5.635-16.036-12.649-32.682-12.649
			s-25.537,7.013-32.682,12.649c-6.473,5.106-11.585,9.139-22.562,9.139c-10.977,0-16.09-4.033-22.563-9.139
			C117.246,258.166,110.425,252.808,99.466,250.816z M208.068,359.489v49.021h-23.421v-49.021c0-39.344,32.009-71.353,71.353-71.353
			c1.472,0,2.942,0.061,4.412,0.151c-2.813,7.655-5.153,15.443-7.025,23.344C228.168,312.993,208.068,333.936,208.068,359.489z
			 M250.127,328.453c-1.527,10.191-2.297,20.546-2.297,31.036v49.021h-23.421v-49.021
			C224.409,344.077,235.506,331.215,250.127,328.453z M105.123,359.489c0-26.731,7.023-52.71,20.336-75.634
			c5.222,2.494,11.644,4.281,20.043,4.281c1.752,0,3.399-0.094,4.986-0.239c-14.12,20.775-21.944,45.565-21.944,71.592
			c0,4.512,3.658,8.17,8.17,8.17s8.17-3.658,8.17-8.17c0-37.449,18.582-71.96,49.773-92.645c1.827-0.316,3.828-0.496,6.088-0.496
			c10.976,0,16.09,4.033,22.563,9.139c0.733,0.578,1.491,1.173,2.268,1.771c-33.4,12.397-57.271,44.57-57.271,82.23v49.021h-23.421
			v-16.34c0-4.512-3.658-8.17-8.17-8.17s-8.17,3.658-8.17,8.17v16.34h-23.421V359.489z M487.489,441.191H106.213
			c-4.512,0-8.17,3.658-8.17,8.17s3.658,8.17,8.17,8.17h353.6l-4.237,12.711c-4.593,13.777-20.741,25.417-35.265,25.417H91.688
			c-14.523,0-30.672-11.64-35.265-25.417l-4.237-12.711h21.345c4.512,0,8.17-3.658,8.17-8.17s-3.658-8.17-8.17-8.17H24.511
			c-4.506,0-8.17-3.665-8.17-8.17c0-4.506,3.665-8.17,8.17-8.17h462.979c4.506,0,8.17,3.665,8.17,8.17
			C495.66,437.527,491.995,441.191,487.489,441.191z"/>
	</g>
</g>
</svg>